<svg width="144" height="144" viewBox="0 0 144 144" fill="none" xmlns="http://www.w3.org/2000/svg">
<g clip-path="url(#clip0_330_149)">
<path fill-rule="evenodd" clip-rule="evenodd" d="M20 0C8.95431 0 0 8.95431 0 20V124C0 135.046 8.95431 144 20 144H124C135.046 144 144 135.046 144 124V20C144 8.95431 135.046 0 124 0H20ZM55.9516 56.6101C64.909 54.7359 71.629 46.9 71.629 37.5181C71.629 26.7385 62.7578 18 51.8145 18C40.8713 18 32 26.7385 32 37.5181C32 46.4842 38.1376 54.0383 46.5 56.3261V74L88.6129 73.9604V87.3715C79.4133 89.2123 72.5 97.0689 72.5 106.482C72.5 117.261 81.5662 126 92.75 126C103.934 126 113 117.261 113 106.482C113 97.3684 106.52 89.7138 97.7581 87.5653V73.9518V67.0121H88.6129H55.9516V56.6101Z" fill="white"/>
</g>
<defs>
<clipPath id="clip0_330_149">
<rect width="144" height="144" fill="white"/>
</clipPath>
</defs>
</svg>
